<?xml version="1.0" encoding="UTF-8" standalone="no"?>
<!-- Created with dxf2svg -->
<svg
   xmlns:dc="http://purl.org/dc/elements/1.1/"
   xmlns:cc="http://creativecommons.org/ns#"
   xmlns:rdf="http://www.w3.org/1999/02/22-rdf-syntax-ns#"
   xmlns:svg="http://www.w3.org/2000/svg"
   xmlns="http://www.w3.org/2000/svg"
   xmlns:sodipodi="http://sodipodi.sourceforge.net/DTD/sodipodi-0.dtd"
   xmlns:inkscape="http://www.inkscape.org/namespaces/inkscape"
   id="svg6811"
   sodipodi:version="0.32"
   inkscape:version="0.46"
   width="210mm"
   height="297mm"
   sodipodi:docname="climb.svg"
   inkscape:output_extension="org.inkscape.output.svg.inkscape">
  <metadata
     id="metadata6919">
    <rdf:RDF>
      <cc:Work
         rdf:about="">
        <dc:format>image/svg+xml</dc:format>
        <dc:type
           rdf:resource="http://purl.org/dc/dcmitype/StillImage" />
      </cc:Work>
    </rdf:RDF>
  </metadata>
  <defs
     id="defs6917">
    <inkscape:perspective
       sodipodi:type="inkscape:persp3d"
       inkscape:vp_x="0 : 526.18109 : 1"
       inkscape:vp_y="0 : 1000 : 0"
       inkscape:vp_z="744.09448 : 526.18109 : 1"
       inkscape:persp3d-origin="372.04724 : 350.78739 : 1"
       id="perspective6921" />
  </defs>
  <sodipodi:namedview
     inkscape:window-height="1124"
     inkscape:window-width="1599"
     inkscape:pageshadow="2"
     inkscape:pageopacity="0.0"
     guidetolerance="10.0"
     gridtolerance="10.0"
     objecttolerance="10.0"
     borderopacity="1.0"
     bordercolor="#666666"
     pagecolor="#ffffff"
     id="base"
     showgrid="false"
     inkscape:zoom="1"
     inkscape:cx="161.54519"
     inkscape:cy="884.6301"
     inkscape:window-x="0"
     inkscape:window-y="25"
     inkscape:current-layer="layer5" />
  <g
     inkscape:label="0"
     inkscape:groupmode="layer"
     id="layer1" />
  <g
     inkscape:label="Layer1"
     inkscape:groupmode="layer"
     id="layer2">
    <path
       d="M 151.29409,204.236 C 152.59855,204.97557 153.55371,206.20537 153.94745,207.65228 C 154.34119,209.09918 154.14091,210.64341 153.39109,211.942"
       id="path6815"
       style="fill:none;stroke:#000000;stroke-width:1" />
    <path
       d="M 175.03109,213.07 C 176.47631,212.67079 178.02109,212.86508 179.32244,213.60973 C 180.6238,214.35438 181.57401,215.58776 181.96209,217.036"
       id="path6817"
       style="fill:none;stroke:#000000;stroke-width:1" />
    <path
       d="M 172.61909,146.93 C 171.17387,147.32921 169.62908,147.13492 168.32773,146.39027 C 167.02638,145.64562 166.07617,144.41224 165.68809,142.964"
       id="path6819"
       style="fill:none;stroke:#000000;stroke-width:1" />
    <path
       d="M 206.89509,178.794 C 206.49588,177.34878 206.69017,175.804 207.43482,174.50264 C 208.17947,173.20129 209.41284,172.25108 210.86109,171.863"
       id="path6821"
       style="fill:none;stroke:#000000;stroke-width:1" />
    <path
       d="M 198.06109,202.531 C 198.80066,201.22654 200.03046,200.27138 201.47736,199.87764 C 202.92427,199.4839 204.4685,199.68418 205.76709,200.434"
       id="path6823"
       style="fill:none;stroke:#000000;stroke-width:1" />
    <path
       d="M 149.58909,157.469 C 148.84952,158.77346 147.61972,159.72862 146.17281,160.12236 C 144.72591,160.5161 143.18168,160.31582 141.88309,159.566"
       id="path6825"
       style="fill:none;stroke:#000000;stroke-width:1" />
    <path
       d="M 140.75509,181.206 C 141.1543,182.65122 140.96001,184.196 140.21536,185.49736 C 139.47071,186.79871 138.23733,187.74892 136.78909,188.137"
       id="path6827"
       style="fill:none;stroke:#000000;stroke-width:1" />
    <path
       d="M 196.35609,155.764 C 195.05163,155.02443 194.09646,153.79463 193.70272,152.34772 C 193.30898,150.90082 193.50927,149.35659 194.25909,148.058"
       id="path6829"
       style="fill:none;stroke:#000000;stroke-width:1" />
    <path
       d="M180 180 A 0,0 0 0,0 180,180"
       fill="none"
       stroke="black"
       stroke-width="1"
       id="path6831" />
    <path
       d="M 173.82509,247.5 C 141.71625,247.50004 114.05147,224.88153 107.67109,193.413"
       id="path6833"
       style="fill:none;stroke:#000000;stroke-width:1" />
    <circle
       cx="180"
       cy="180"
       r="22.5"
       id="circle6835"
       sodipodi:cx="180"
       sodipodi:cy="180"
       sodipodi:rx="22.5"
       sodipodi:ry="22.5"
       transform="matrix(-1,0,0,1,353.82509,0)"
       style="fill:none;stroke:#000000;stroke-width:1" />
    <line
       x1="129.94379"
       y1="189.9711"
       x2="136.78918"
       y2="188.1369"
       id="line6837"
       style="stroke:#000000;stroke-width:1" />
    <line
       x1="134.92619"
       y1="194.95441"
       x2="151.29449"
       y2="204.2361"
       id="line6839"
       style="stroke:#000000;stroke-width:1" />
    <line
       x1="149.84731"
       y1="218.0799"
       x2="153.39058"
       y2="211.94189"
       id="line6841"
       style="stroke:#000000;stroke-width:1" />
    <line
       x1="135.74519"
       y1="163.0683"
       x2="135.74519"
       y2="156.0222"
       id="line6843"
       style="stroke:#000000;stroke-width:1" />
    <line
       x1="158.87068"
       y1="141.1011"
       x2="163.85399"
       y2="136.1187"
       id="line6845"
       style="stroke:#000000;stroke-width:1" />
    <line
       x1="163.85399"
       y1="136.1187"
       x2="165.68819"
       y2="142.9641"
       id="line6847"
       style="stroke:#000000;stroke-width:1" />
    <line
       x1="135.74519"
       y1="156.0222"
       x2="141.88319"
       y2="159.56551"
       id="line6849"
       style="stroke:#000000;stroke-width:1" />
    <line
       x1="158.87068"
       y1="141.1011"
       x2="149.58899"
       y2="157.46941"
       id="line6851"
       style="stroke:#000000;stroke-width:1" />
    <line
       x1="190.75679"
       y1="141.9201"
       x2="172.61908"
       y2="146.9304"
       id="line6853"
       style="stroke:#000000;stroke-width:1" />
    <line
       x1="156.8934"
       y1="218.0799"
       x2="175.03108"
       y2="213.0696"
       id="line6855"
       style="stroke:#000000;stroke-width:1" />
    <line
       x1="211.90498"
       y1="196.93169"
       x2="206.89468"
       y2="178.79401"
       id="line6857"
       style="stroke:#000000;stroke-width:1" />
    <line
       x1="135.74519"
       y1="163.0683"
       x2="140.75549"
       y2="181.20601"
       id="line6859"
       style="stroke:#000000;stroke-width:1" />
    <line
       x1="211.90498"
       y1="196.93169"
       x2="211.90498"
       y2="203.97778"
       id="line6861"
       style="stroke:#000000;stroke-width:1" />
    <line
       x1="188.77948"
       y1="218.8989"
       x2="183.79619"
       y2="223.8813"
       id="line6863"
       style="stroke:#000000;stroke-width:1" />
    <line
       x1="183.79619"
       y1="223.8813"
       x2="181.96199"
       y2="217.0359"
       id="line6865"
       style="stroke:#000000;stroke-width:1" />
    <line
       x1="188.77948"
       y1="218.8989"
       x2="198.06119"
       y2="202.53059"
       id="line6867"
       style="stroke:#000000;stroke-width:1" />
    <line
       x1="211.90498"
       y1="203.97778"
       x2="205.76698"
       y2="200.43451"
       id="line6869"
       style="stroke:#000000;stroke-width:1" />
    <line
       x1="190.75679"
       y1="141.9201"
       x2="197.80289"
       y2="141.9201"
       id="line6871"
       style="stroke:#000000;stroke-width:1" />
    <line
       x1="212.72398"
       y1="165.04561"
       x2="217.70639"
       y2="170.0289"
       id="line6873"
       style="stroke:#000000;stroke-width:1" />
    <line
       x1="197.80289"
       y1="141.9201"
       x2="194.25958"
       y2="148.05811"
       id="line6875"
       style="stroke:#000000;stroke-width:1" />
    <line
       x1="212.72398"
       y1="165.04561"
       x2="196.35568"
       y2="155.7639"
       id="line6877"
       style="stroke:#000000;stroke-width:1" />
    <line
       x1="217.70639"
       y1="170.0289"
       x2="210.86099"
       y2="171.8631"
       id="line6879"
       style="stroke:#000000;stroke-width:1" />
    <line
       x1="156.8934"
       y1="218.0799"
       x2="149.84731"
       y2="218.0799"
       id="line6881"
       style="stroke:#000000;stroke-width:1" />
    <line
       x1="134.92619"
       y1="194.95441"
       x2="129.94379"
       y2="189.9711"
       id="line6883"
       style="stroke:#000000;stroke-width:1" />
    <line
       x1="173.82509"
       y1="79"
       x2="182.82509"
       y2="115"
       id="line6885"
       style="stroke:#000000;stroke-width:1" />
    <line
       x1="182.82509"
       y1="115"
       x2="164.8251"
       y2="115"
       id="line6887"
       style="stroke:#000000;stroke-width:1" />
    <line
       x1="164.8251"
       y1="115"
       x2="173.82509"
       y2="79"
       id="line6889"
       style="stroke:#000000;stroke-width:1" />
    <line
       x1="173.82509"
       y1="90"
       x2="173.82509"
       y2="135"
       id="line6891"
       style="stroke:#000000;stroke-width:1" />
    <line
       x1="160.47899"
       y1="127.6749"
       x2="160.47899"
       y2="127.6749"
       id="line6893"
       style="stroke:#000000;stroke-width:1" />
    <line
       x1="107.99998"
       y1="157.3461"
       x2="116.99998"
       y2="193.3461"
       id="line6895"
       style="stroke:#000000;stroke-width:1" />
    <line
       x1="116.99998"
       y1="193.3461"
       x2="99"
       y2="193.3461"
       id="line6897"
       style="stroke:#000000;stroke-width:1" />
    <line
       x1="99"
       y1="193.3461"
       x2="107.99998"
       y2="157.3461"
       id="line6899"
       style="stroke:#000000;stroke-width:1" />
  </g>
  <g
     inkscape:label="Construction"
     inkscape:groupmode="layer"
     id="layer3" />
  <g
     inkscape:label="Dimension"
     inkscape:groupmode="layer"
     id="layer4" />
  <g
     inkscape:label="Constraints"
     inkscape:groupmode="layer"
     id="layer5">
    <path
       d="M 209.82509,153 C 215.66708,160.78933 218.82509,170.26334 218.82509,180"
       id="path6904"
       style="fill:none;stroke:#000000;stroke-width:1" />
    <line
       x1="209.82509"
       y1="81"
       x2="254.82509"
       y2="81"
       id="line6906"
       style="stroke:#000000;stroke-width:1" />
    <line
       x1="254.82509"
       y1="81"
       x2="254.82509"
       y2="252"
       id="line6908"
       style="stroke:#000000;stroke-width:1" />
    <line
       x1="254.82509"
       y1="252"
       x2="218.82509"
       y2="252"
       id="line6910"
       style="stroke:#000000;stroke-width:1" />
    <line
       x1="218.82509"
       y1="180"
       x2="218.82509"
       y2="252"
       id="line6912"
       style="stroke:#000000;stroke-width:1" />
    <line
       x1="209.82509"
       y1="153"
       x2="209.82509"
       y2="81"
       id="line6914"
       style="stroke:#000000;stroke-width:1" />
    <path
       style="fill:#ff0000;fill-opacity:1;stroke-width:2;stroke-miterlimit:10.43299961;stroke-dasharray:none"
       d="M 186.36329,220.3418 C 188.35415,218.31448 188.85027,217.55434 193.09281,210.03139 C 195.61193,205.56445 198.10687,201.46131 198.63713,200.91331 C 199.96113,199.54494 201.48306,199.00244 203.48779,199.18422 C 204.81872,199.30491 205.56775,199.60979 208.07952,201.05322 L 211.08086,202.77799 L 211.15547,199.79489 L 211.23009,196.81177 L 208.69233,187.65055 C 207.01092,181.58072 206.15654,178.03789 206.16043,177.15149 C 206.17278,174.32551 208.0374,172.0868 211.13579,171.17796 C 212.1308,170.8861 213.75919,170.42837 214.75449,170.16077 L 216.56414,169.67421 L 214.35506,167.53755 C 212.32729,165.57624 211.4687,165.01957 203.89329,160.75468 C 199.02332,158.01293 195.23469,155.70347 194.65035,155.1204 C 193.44255,153.91523 192.70369,151.68977 192.95499,150.01396 C 193.04978,149.38189 193.86464,147.57277 194.83246,145.84569 L 196.54247,142.79418 L 193.51805,142.71937 L 190.4936,142.64458 L 181.74781,145.06849 C 176.93759,146.40163 172.39012,147.5587 171.64228,147.63973 C 170.03319,147.8141 168.78567,147.45144 167.30507,146.3789 C 165.96397,145.40741 165.40245,144.31788 164.49692,140.93018 C 164.10546,139.46561 163.71934,138.04322 163.6389,137.76933 C 163.51712,137.35476 163.16134,137.6001 161.515,139.2339 C 159.69701,141.03808 159.15661,141.8724 154.81937,149.57153 C 149.55732,158.91237 148.76805,159.95065 146.40801,160.63673 C 144.16564,161.2886 142.64033,160.83757 138.36125,158.25735 C 137.49544,157.73528 136.6972,157.30783 136.58736,157.30745 C 136.47751,157.30708 136.38764,158.59999 136.38764,160.18059 C 136.38764,162.99201 136.44258,163.25283 138.91736,172.19088 C 142.00609,183.34629 142.07839,184.33209 139.98935,186.80962 C 139.00478,187.9773 137.86654,188.51381 134.52364,189.38589 C 132.98584,189.78706 131.62541,190.17746 131.50047,190.25344 C 131.37553,190.32943 132.15441,191.28343 133.23133,192.37347 C 135.02902,194.19305 135.88465,194.75055 143.68002,199.18144 C 148.38779,201.85733 152.56222,204.41068 153.04948,204.91239 C 154.03415,205.92627 154.76729,207.7809 154.74968,209.2134 C 154.73307,210.56545 154.25362,211.75075 152.53802,214.6811 C 151.71046,216.09462 151.03337,217.30429 151.03337,217.36926 C 151.03337,217.43424 152.30292,217.4874 153.85459,217.4874 C 156.59739,217.4874 156.92945,217.41733 165.79978,214.96686 C 170.81794,213.58057 175.39004,212.3726 175.96,212.2825 C 177.14828,212.09465 179.18257,212.69225 180.3972,213.58598 C 181.58236,214.45805 182.33824,215.99007 183.22615,219.31994 C 183.67063,220.98691 184.07472,222.39121 184.12414,222.44063 C 184.17357,222.49005 185.18119,221.54557 186.36329,220.3418 L 186.36329,220.3418 z M 167.94253,202.32703 C 161.71903,200.68317 156.70002,196.75251 153.58247,191.08086 C 147.16714,179.40958 152.05189,164.63173 164.17682,159.02966 C 174.83172,154.1068 188.135,158.3167 193.80444,168.4055 C 196.14352,172.56788 196.96815,176.07871 196.75955,180.98667 C 196.55672,185.75913 195.34946,189.45286 192.74965,193.25538 C 189.43141,198.1087 183.67542,201.72543 177.4863,202.84602 C 175.36216,203.23061 170.32675,202.95678 167.94253,202.32702 L 167.94253,202.32703 z"
       id="path6923" />
    <path
       style="fill:#000000;fill-opacity:1;stroke-width:2;stroke-miterlimit:10.43299961;stroke-dasharray:none"
       d="M 116.06667,192.2568 C 116.00132,192.0005 114.16048,184.62898 111.97585,175.87564 L 108.00379,159.96048 L 103.9497,176.14194 C 101.71992,185.04172 99.892029,192.41325 99.887689,192.52309 C 99.883379,192.63293 103.54859,192.72281 108.03261,192.72281 C 115.66487,192.72281 116.17781,192.69305 116.06664,192.2568 L 116.06667,192.2568 z"
       id="path7434" />
    <path
       style="fill:#000000;fill-opacity:1;stroke-width:2;stroke-miterlimit:10.43299961;stroke-dasharray:none"
       d="M 181.89592,114.13595 C 181.89592,113.98861 180.07601,106.58919 177.8517,97.69279 L 173.80751,81.517527 L 169.89813,97.15323 C 167.74798,105.75287 165.91609,113.15229 165.82729,113.59639 L 165.66579,114.40385 L 173.78085,114.40385 C 179.04588,114.40385 181.89592,114.30976 181.89592,114.13595 L 181.89592,114.13595 z"
       id="path7436" />
    <path
       style="fill:#cfdeed;fill-opacity:1;stroke-width:2;stroke-miterlimit:10.43299961;stroke-dasharray:none"
       d="M 254.3257,166.49364 L 254.3257,81.681552 L 232.35711,81.681552 L 210.38852,81.681552 L 210.38852,117.167 L 210.38852,152.65245 L 211.58206,154.43162 C 214.39567,158.62572 216.70807,163.76335 217.97239,168.62949 C 219.44644,174.30278 219.44224,174.17205 219.44224,214.30561 L 219.44224,251.30572 L 236.88397,251.30572 L 254.3257,251.30572 L 254.3257,166.49364 z"
       id="path7438" />
  </g>
</svg>
