<?xml version="1.0" encoding="UTF-8" standalone="no"?>
<!-- Created with dxf2svg -->
<svg
   xmlns:dc="http://purl.org/dc/elements/1.1/"
   xmlns:cc="http://creativecommons.org/ns#"
   xmlns:rdf="http://www.w3.org/1999/02/22-rdf-syntax-ns#"
   xmlns:svg="http://www.w3.org/2000/svg"
   xmlns="http://www.w3.org/2000/svg"
   xmlns:sodipodi="http://sodipodi.sourceforge.net/DTD/sodipodi-0.dtd"
   xmlns:inkscape="http://www.inkscape.org/namespaces/inkscape"
   id="svg5289"
   sodipodi:version="0.32"
   inkscape:version="0.46"
   width="210mm"
   height="297mm"
   sodipodi:docname="conventional.svg"
   inkscape:output_extension="org.inkscape.output.svg.inkscape">
  <metadata
     id="metadata5397">
    <rdf:RDF>
      <cc:Work
         rdf:about="">
        <dc:format>image/svg+xml</dc:format>
        <dc:type
           rdf:resource="http://purl.org/dc/dcmitype/StillImage" />
      </cc:Work>
    </rdf:RDF>
  </metadata>
  <defs
     id="defs5395">
    <inkscape:perspective
       sodipodi:type="inkscape:persp3d"
       inkscape:vp_x="0 : 526.18109 : 1"
       inkscape:vp_y="0 : 1000 : 0"
       inkscape:vp_z="744.09448 : 526.18109 : 1"
       inkscape:persp3d-origin="372.04724 : 350.78739 : 1"
       id="perspective5399" />
  </defs>
  <sodipodi:namedview
     inkscape:window-height="1124"
     inkscape:window-width="1599"
     inkscape:pageshadow="2"
     inkscape:pageopacity="0.0"
     guidetolerance="10.0"
     gridtolerance="10.0"
     objecttolerance="10.0"
     borderopacity="1.0"
     bordercolor="#666666"
     pagecolor="#ffffff"
     id="base"
     showgrid="false"
     inkscape:zoom="1"
     inkscape:cx="272.3516"
     inkscape:cy="914.77174"
     inkscape:window-x="0"
     inkscape:window-y="25"
     inkscape:current-layer="layer5" />
  <g
     inkscape:label="0"
     inkscape:groupmode="layer"
     id="layer1" />
  <g
     inkscape:label="Layer1"
     inkscape:groupmode="layer"
     id="layer2">
    <path
       d="M202.531 204.236 A 5.625,5.625 0 0,0 200.434,211.942"
       fill="none"
       stroke="black"
       stroke-width="1"
       id="path5293" />
    <path
       d="M178.794 213.07 A 5.625,5.625 0 0,0 171.863,217.036"
       fill="none"
       stroke="black"
       stroke-width="1"
       id="path5295" />
    <path
       d="M181.206 146.93 A 5.625,5.625 0 0,0 188.137,142.964"
       fill="none"
       stroke="black"
       stroke-width="1"
       id="path5297" />
    <path
       d="M146.93 178.794 A 5.625,5.625 0 0,0 142.964,171.863"
       fill="none"
       stroke="black"
       stroke-width="1"
       id="path5299" />
    <path
       d="M155.764 202.531 A 5.625,5.625 0 0,0 148.058,200.434"
       fill="none"
       stroke="black"
       stroke-width="1"
       id="path5301" />
    <path
       d="M204.236 157.469 A 5.625,5.625 0 0,0 211.942,159.566"
       fill="none"
       stroke="black"
       stroke-width="1"
       id="path5303" />
    <path
       d="M213.07 181.206 A 5.625,5.625 0 0,0 217.036,188.137"
       fill="none"
       stroke="black"
       stroke-width="1"
       id="path5305" />
    <path
       d="M157.469 155.764 A 5.625,5.625 0 0,0 159.566,148.058"
       fill="none"
       stroke="black"
       stroke-width="1"
       id="path5307" />
    <path
       d="M225 180 A 45,45 0 0,0 216,153"
       fill="none"
       stroke="black"
       stroke-width="1"
       id="path5309" />
    <path
       d="M180 180 A 0,0 0 0,0 180,180"
       fill="none"
       stroke="black"
       stroke-width="1"
       id="path5311" />
    <path
       d="M112.5 180 A 67.5,67.5 0 0,0 166.587,246.154"
       fill="none"
       stroke="black"
       stroke-width="1"
       id="path5313" />
    <circle
       cx="2in"
       cy="2in "
       r="0.25in"
       fill="none"
       stroke="black"
       stroke-width="1"
       id="circle5315" />
    <line
       x1="2.48757in"
       y1="2.11079in"
       x2="2.41151in"
       y2="2.09041in"
       stroke-width="1"
       stroke="black"
       id="line5317" />
    <line
       x1="2.43221in"
       y1="2.16616in"
       x2="2.25034in"
       y2="2.26929in"
       stroke-width="1"
       stroke="black"
       id="line5319" />
    <line
       x1="2.26642in"
       y1="2.42311in"
       x2="2.22705in"
       y2="2.35491in"
       stroke-width="1"
       stroke="black"
       id="line5321" />
    <line
       x1="2.42311in"
       y1="1.81187in"
       x2="2.42311in"
       y2="1.73358in"
       stroke-width="1"
       stroke="black"
       id="line5323" />
    <line
       x1="2.16616in"
       y1="1.56779in"
       x2="2.11079in"
       y2="1.51243in"
       stroke-width="1"
       stroke="black"
       id="line5325" />
    <line
       x1="2.11079in"
       y1="1.51243in"
       x2="2.09041in"
       y2="1.58849in"
       stroke-width="1"
       stroke="black"
       id="line5327" />
    <line
       x1="2.42311in"
       y1="1.73358in"
       x2="2.35491in"
       y2="1.77295in"
       stroke-width="1"
       stroke="black"
       id="line5329" />
    <line
       x1="2.16616in"
       y1="1.56779in"
       x2="2.26929in"
       y2="1.74966in"
       stroke-width="1"
       stroke="black"
       id="line5331" />
    <line
       x1="1.81187in"
       y1="1.57689in"
       x2="2.0134in"
       y2="1.63256in"
       stroke-width="1"
       stroke="black"
       id="line5333" />
    <line
       x1="2.18813in"
       y1="2.42311in"
       x2="1.9866in"
       y2="2.36744in"
       stroke-width="1"
       stroke="black"
       id="line5335" />
    <line
       x1="1.57689in"
       y1="2.18813in"
       x2="1.63256in"
       y2="1.9866in"
       stroke-width="1"
       stroke="black"
       id="line5337" />
    <line
       x1="2.42311in"
       y1="1.81187in"
       x2="2.36744in"
       y2="2.0134in"
       stroke-width="1"
       stroke="black"
       id="line5339" />
    <line
       x1="1.57689in"
       y1="2.18813in"
       x2="1.57689in"
       y2="2.26642in"
       stroke-width="1"
       stroke="black"
       id="line5341" />
    <line
       x1="1.83384in"
       y1="2.43221in"
       x2="1.88921in"
       y2="2.48757in"
       stroke-width="1"
       stroke="black"
       id="line5343" />
    <line
       x1="1.88921in"
       y1="2.48757in"
       x2="1.90959in"
       y2="2.41151in"
       stroke-width="1"
       stroke="black"
       id="line5345" />
    <line
       x1="1.83384in"
       y1="2.43221in"
       x2="1.73071in"
       y2="2.25034in"
       stroke-width="1"
       stroke="black"
       id="line5347" />
    <line
       x1="1.57689in"
       y1="2.26642in"
       x2="1.64509in"
       y2="2.22705in"
       stroke-width="1"
       stroke="black"
       id="line5349" />
    <line
       x1="1.81187in"
       y1="1.57689in"
       x2="1.73358in"
       y2="1.57689in"
       stroke-width="1"
       stroke="black"
       id="line5351" />
    <line
       x1="1.56779in"
       y1="1.83384in"
       x2="1.51243in"
       y2="1.88921in"
       stroke-width="1"
       stroke="black"
       id="line5353" />
    <line
       x1="1.73358in"
       y1="1.57689in"
       x2="1.77295in"
       y2="1.64509in"
       stroke-width="1"
       stroke="black"
       id="line5355" />
    <line
       x1="1.56779in"
       y1="1.83384in"
       x2="1.74966in"
       y2="1.73071in"
       stroke-width="1"
       stroke="black"
       id="line5357" />
    <line
       x1="1.51243in"
       y1="1.88921in"
       x2="1.58849in"
       y2="1.90959in"
       stroke-width="1"
       stroke="black"
       id="line5359" />
    <line
       x1="2.18813in"
       y1="2.42311in"
       x2="2.26642in"
       y2="2.42311in"
       stroke-width="1"
       stroke="black"
       id="line5361" />
    <line
       x1="2.43221in"
       y1="2.16616in"
       x2="2.48757in"
       y2="2.11079in"
       stroke-width="1"
       stroke="black"
       id="line5363" />
    <line
       x1="180"
       y1="79"
       x2="171"
       y2="115"
       id="line5365"
       style="stroke:#000000;stroke-width:1" />
    <line
       x1="171"
       y1="115"
       x2="188.99998"
       y2="115"
       id="line5367"
       style="stroke:#000000;stroke-width:1" />
    <line
       x1="188.99998"
       y1="115"
       x2="180"
       y2="79"
       id="line5369"
       style="stroke:#000000;stroke-width:1" />
    <line
       x1="2.4in"
       y1="0.9in"
       x2="2.9in"
       y2="0.9in"
       stroke-width="1"
       stroke="black"
       id="line5371" />
    <line
       x1="2.9in"
       y1="0.9in"
       x2="2.9in"
       y2="2.8in"
       stroke-width="1"
       stroke="black"
       id="line5373" />
    <line
       x1="2.9in"
       y1="2.8in"
       x2="2.5in"
       y2="2.8in"
       stroke-width="1"
       stroke="black"
       id="line5375" />
    <line
       x1="2.5in"
       y1="2in"
       x2="2.5in"
       y2="2.8in"
       stroke-width="1"
       stroke="black"
       id="line5377" />
    <line
       x1="2.4in"
       y1="1.7in"
       x2="2.4in"
       y2="0.9in"
       stroke-width="1"
       stroke="black"
       id="line5379" />
    <line
       x1="2in"
       y1="1in"
       x2="2in"
       y2="1.5in"
       stroke-width="1"
       stroke="black"
       id="line5381" />
    <line
       x1="1.85171in"
       y1="2.58139in"
       x2="1.85171in"
       y2="2.58139in"
       stroke-width="1"
       stroke="black"
       id="line5383" />
    <line
       x1="2.25171in"
       y1="2.73139in"
       x2="1.85171in"
       y2="2.63139in"
       stroke-width="1"
       stroke="black"
       id="line5385" />
    <line
       x1="1.85171in"
       y1="2.63139in"
       x2="1.85171in"
       y2="2.83139in"
       stroke-width="1"
       stroke="black"
       id="line5387" />
    <line
       x1="1.85171in"
       y1="2.83139in"
       x2="2.25171in"
       y2="2.73139in"
       stroke-width="1"
       stroke="black"
       id="line5389" />
  </g>
  <g
     inkscape:label="Construction"
     inkscape:groupmode="layer"
     id="layer3" />
  <g
     inkscape:label="Dimension"
     inkscape:groupmode="layer"
     id="layer4" />
  <g
     inkscape:label="Constraints"
     inkscape:groupmode="layer"
     id="layer5">
    <path
       style="fill:#ff0000;fill-opacity:1;stroke-width:2;stroke-miterlimit:10.43299961;stroke-dasharray:none"
       d="M 167.31186,219.9739 C 165.63812,218.21559 163.90173,215.55007 160.44705,209.43591 C 157.90363,204.93453 155.388,200.9097 154.85679,200.49185 C 153.51615,199.4373 151.29312,198.83676 149.78053,199.12052 C 149.08072,199.25181 147.24265,200.10169 145.69594,201.00916 L 142.88368,202.65912 L 142.77439,199.69401 C 142.67539,197.00852 142.90111,195.88505 145.168,187.78043 C 146.54461,182.85877 147.66849,178.12777 147.66552,177.26708 C 147.6532,173.69904 145.63881,171.78948 140.53002,170.50294 C 139.02838,170.1248 137.79977,169.72052 137.79977,169.60457 C 137.79977,169.48863 138.77419,168.44668 139.96514,167.28914 C 141.57485,165.72461 144.23181,164.00275 150.3192,160.57919 C 154.83709,158.03831 158.92432,155.47891 159.43689,154.86975 C 161.519,152.39534 161.38237,149.77415 158.9546,145.61725 C 158.08977,144.13649 157.38221,142.82743 157.38221,142.70822 C 157.38221,142.58903 158.56977,142.49149 160.0212,142.49149 C 162.13381,142.49149 164.55299,143.01732 172.14898,145.12758 C 177.36777,146.57744 182.15383,147.75996 182.78461,147.75541 C 184.56567,147.74257 187.03163,146.44131 187.86177,145.07624 C 188.2715,144.40256 188.98095,142.43463 189.43835,140.70307 L 190.27004,137.55478 L 192.41409,139.67647 C 194.08778,141.33267 195.60478,143.64511 199.32857,150.21641 C 202.01671,154.96018 204.59248,159.04996 205.2297,159.58613 C 207.53639,161.52709 210.31303,161.37202 214.15846,159.08749 C 215.57732,158.24457 216.85545,157.5549 216.99874,157.5549 C 217.14203,157.5549 217.25926,158.90115 217.25926,160.54657 C 217.25926,163.07289 216.87849,164.91032 214.81146,172.35896 C 212.241,181.6216 211.97498,183.54781 212.97496,185.65514 C 213.82642,187.44951 215.07013,188.21873 218.92817,189.33721 C 220.76516,189.86977 222.32343,190.36084 222.3911,190.4285 C 222.45873,190.49614 221.68643,191.36672 220.67485,192.36309 C 219.4256,193.59357 215.95741,195.82102 209.86271,199.30721 C 199.69529,205.12298 199.18317,205.59124 199.18317,209.07161 C 199.18317,210.84179 199.43047,211.57306 200.8778,214.08228 C 201.80985,215.69817 202.57244,217.1129 202.57244,217.22611 C 202.57244,217.33931 201.36589,217.43195 199.89122,217.43195 C 197.73878,217.43195 195.31312,216.91209 187.5912,214.79585 C 182.30089,213.346 177.57075,212.15976 177.07984,212.15976 C 174.03676,212.15976 171.79424,214.54659 170.60393,219.0524 C 170.12807,220.85373 169.69677,222.32756 169.64552,222.32756 C 169.59426,222.32756 168.54412,221.26841 167.31186,219.9739 z M 185.06122,202.55762 C 193.14519,200.86779 200.27722,193.9738 202.38279,185.81416 C 203.12421,182.94079 203.21741,177.60312 202.57507,174.79864 C 201.09675,168.3445 196.40706,162.39714 190.49983,159.48509 C 183.42421,155.99706 176.55548,155.97304 169.62123,159.41204 C 165.82114,161.29668 163.19857,163.6013 160.83836,167.13009 C 158.28797,170.94324 157.35155,173.80828 157.10651,178.548 C 156.72473,185.93286 158.74831,191.36202 163.73226,196.32458 C 169.45896,202.02662 177.02452,204.23753 185.06122,202.5576 L 185.06122,202.55762 z"
       id="path5401" />
    <path
       style="fill:#000000;fill-opacity:1;stroke-width:2;stroke-miterlimit:10.43299961;stroke-dasharray:none"
       d="M 172.06903,114.01303 C 172.06903,113.32609 179.70027,82.954577 179.94237,82.677877 C 180.07245,82.529254 181.97601,89.604349 184.17256,98.400311 L 188.16624,114.39297 L 180.11764,114.39297 C 174.95559,114.39297 172.06903,114.25671 172.06903,114.01303 z"
       id="path5403" />
    <path
       style="fill:#000000;fill-opacity:1;stroke-width:2;stroke-miterlimit:10.43299960999999954;stroke-dasharray:none"
       d="M 167.17342,245.87131 C 167.17342,241.41424 167.25959,237.76755 167.36492,237.76755 C 167.47025,237.76755 174.79954,239.57868 183.65223,241.79228 L 199.74805,245.81702 L 184.49634,249.63348 C 176.10791,251.73253 168.77862,253.56809 168.20903,253.71251 L 167.17342,253.97506 L 167.17342,245.87131 z"
       id="path5405" />
    <path
       style="fill:#cfdeed;fill-opacity:1;stroke-width:2;stroke-miterlimit:10.43299960999999954;stroke-dasharray:none"
       d="M 225.54414,213.52713 C 225.54414,181.35743 225.45858,175.23168 224.96954,172.3852 C 223.92132,166.28413 221.56487,160.23996 218.23322,155.10709 L 216.52221,152.471 L 216.51415,116.97784 L 216.50609,81.484677 L 238.34803,81.484677 L 260.18998,81.484677 L 260.18998,166.40465 L 260.18998,251.32462 L 242.86706,251.32462 L 225.54414,251.32462 L 225.54414,213.52713 z"
       id="path5407" />
  </g>
</svg>
