<?xml version="1.0" encoding="UTF-8" standalone="no"?>
<!-- Created with dxf2svg -->
<svg
   xmlns:dc="http://purl.org/dc/elements/1.1/"
   xmlns:cc="http://creativecommons.org/ns#"
   xmlns:rdf="http://www.w3.org/1999/02/22-rdf-syntax-ns#"
   xmlns:svg="http://www.w3.org/2000/svg"
   xmlns="http://www.w3.org/2000/svg"
   xmlns:sodipodi="http://sodipodi.sourceforge.net/DTD/sodipodi-0.dtd"
   xmlns:inkscape="http://www.inkscape.org/namespaces/inkscape"
   id="svg5289"
   sodipodi:version="0.32"
   inkscape:version="0.46"
   width="210mm"
   height="297mm"
   sodipodi:docname="conventional.svg"
   inkscape:output_extension="org.inkscape.output.svg.inkscape">
  <metadata
     id="metadata5397">
    <rdf:RDF>
      <cc:Work
         rdf:about="">
        <dc:format>image/svg+xml</dc:format>
        <dc:type
           rdf:resource="http://purl.org/dc/dcmitype/StillImage" />
      </cc:Work>
    </rdf:RDF>
  </metadata>
  <defs
     id="defs5395">
    <inkscape:perspective
       sodipodi:type="inkscape:persp3d"
       inkscape:vp_x="0 : 526.18109 : 1"
       inkscape:vp_y="0 : 1000 : 0"
       inkscape:vp_z="744.09448 : 526.18109 : 1"
       inkscape:persp3d-origin="372.04724 : 350.78739 : 1"
       id="perspective5399" />
  </defs>
  <sodipodi:namedview
     inkscape:window-height="1124"
     inkscape:window-width="1599"
     inkscape:pageshadow="2"
     inkscape:pageopacity="0.0"
     guidetolerance="10.0"
     gridtolerance="10.0"
     objecttolerance="10.0"
     borderopacity="1.0"
     bordercolor="#666666"
     pagecolor="#ffffff"
     id="base"
     showgrid="false"
     inkscape:zoom="1"
     inkscape:cx="189.70913"
     inkscape:cy="840.45717"
     inkscape:window-x="0"
     inkscape:window-y="25"
     inkscape:current-layer="layer5" />
  <g
     inkscape:label="0"
     inkscape:groupmode="layer"
     id="layer1" />
  <g
     inkscape:label="Layer1"
     inkscape:groupmode="layer"
     id="layer2">
    <path
       d="M 170.969,204.236 C 172.27346,204.97557 173.22862,206.20537 173.62236,207.65228 C 174.0161,209.09918 173.81582,210.64341 173.066,211.942"
       id="path5293"
       style="fill:none;stroke:#000000;stroke-width:1" />
    <path
       d="M 194.706,213.07 C 196.15122,212.67079 197.696,212.86508 198.99736,213.60973 C 200.29871,214.35438 201.24892,215.58776 201.637,217.036"
       id="path5295"
       style="fill:none;stroke:#000000;stroke-width:1" />
    <path
       d="M 192.294,146.93 C 190.84878,147.32921 189.304,147.13492 188.00264,146.39027 C 186.70129,145.64562 185.75108,144.41224 185.363,142.964"
       id="path5297"
       style="fill:none;stroke:#000000;stroke-width:1" />
    <path
       d="M 226.57,178.794 C 226.17079,177.34878 226.36508,175.804 227.10973,174.50264 C 227.85438,173.20129 229.08776,172.25108 230.536,171.863"
       id="path5299"
       style="fill:none;stroke:#000000;stroke-width:1" />
    <path
       d="M 217.736,202.531 C 218.47557,201.22654 219.70537,200.27138 221.15228,199.87764 C 222.59918,199.4839 224.14341,199.68418 225.442,200.434"
       id="path5301"
       style="fill:none;stroke:#000000;stroke-width:1" />
    <path
       d="M 169.264,157.469 C 168.52443,158.77346 167.29463,159.72862 165.84772,160.12236 C 164.40082,160.5161 162.85659,160.31582 161.558,159.566"
       id="path5303"
       style="fill:none;stroke:#000000;stroke-width:1" />
    <path
       d="M 160.43,181.206 C 160.82921,182.65122 160.63492,184.196 159.89027,185.49736 C 159.14562,186.79871 157.91224,187.74892 156.464,188.137"
       id="path5305"
       style="fill:none;stroke:#000000;stroke-width:1" />
    <path
       d="M 216.031,155.764 C 214.72654,155.02443 213.77138,153.79463 213.37764,152.34772 C 212.9839,150.90082 213.18418,149.35659 213.934,148.058"
       id="path5307"
       style="fill:none;stroke:#000000;stroke-width:1" />
    <path
       d="M 148.5,180 C 148.5,170.26334 151.658,160.78933 157.5,153"
       id="path5309"
       style="fill:none;stroke:#000000;stroke-width:1" />
    <path
       d="M180 180 A 0,0 0 0,0 180,180"
       fill="none"
       stroke="black"
       stroke-width="1"
       id="path5311" />
    <path
       d="M 261,180 C 261.00004,212.10884 238.38153,239.77362 206.913,246.154"
       id="path5313"
       style="fill:none;stroke:#000000;stroke-width:1" />
    <circle
       cx="180"
       cy="180"
       r="22.5"
       id="circle5315"
       sodipodi:cx="180"
       sodipodi:cy="180"
       sodipodi:rx="22.5"
       sodipodi:ry="22.5"
       transform="matrix(-1,0,0,1,373.5,0)"
       style="fill:none;stroke:#000000;stroke-width:1" />
    <line
       x1="149.6187"
       y1="189.9711"
       x2="156.4641"
       y2="188.1369"
       id="line5317"
       style="stroke:#000000;stroke-width:1" />
    <line
       x1="154.6011"
       y1="194.95441"
       x2="170.96941"
       y2="204.2361"
       id="line5319"
       style="stroke:#000000;stroke-width:1" />
    <line
       x1="169.52222"
       y1="218.0799"
       x2="173.06549"
       y2="211.94189"
       id="line5321"
       style="stroke:#000000;stroke-width:1" />
    <line
       x1="155.4201"
       y1="163.0683"
       x2="155.4201"
       y2="156.0222"
       id="line5323"
       style="stroke:#000000;stroke-width:1" />
    <line
       x1="178.54559"
       y1="141.1011"
       x2="183.5289"
       y2="136.1187"
       id="line5325"
       style="stroke:#000000;stroke-width:1" />
    <line
       x1="183.5289"
       y1="136.1187"
       x2="185.3631"
       y2="142.9641"
       id="line5327"
       style="stroke:#000000;stroke-width:1" />
    <line
       x1="155.4201"
       y1="156.0222"
       x2="161.55811"
       y2="159.56551"
       id="line5329"
       style="stroke:#000000;stroke-width:1" />
    <line
       x1="178.54559"
       y1="141.1011"
       x2="169.2639"
       y2="157.46941"
       id="line5331"
       style="stroke:#000000;stroke-width:1" />
    <line
       x1="210.4317"
       y1="141.9201"
       x2="192.29399"
       y2="146.9304"
       id="line5333"
       style="stroke:#000000;stroke-width:1" />
    <line
       x1="176.56831"
       y1="218.0799"
       x2="194.70599"
       y2="213.0696"
       id="line5335"
       style="stroke:#000000;stroke-width:1" />
    <line
       x1="231.5799"
       y1="196.93169"
       x2="226.5696"
       y2="178.79401"
       id="line5337"
       style="stroke:#000000;stroke-width:1" />
    <line
       x1="155.4201"
       y1="163.0683"
       x2="160.4304"
       y2="181.20601"
       id="line5339"
       style="stroke:#000000;stroke-width:1" />
    <line
       x1="231.5799"
       y1="196.93169"
       x2="231.5799"
       y2="203.97778"
       id="line5341"
       style="stroke:#000000;stroke-width:1" />
    <line
       x1="208.45439"
       y1="218.8989"
       x2="203.4711"
       y2="223.8813"
       id="line5343"
       style="stroke:#000000;stroke-width:1" />
    <line
       x1="203.4711"
       y1="223.8813"
       x2="201.6369"
       y2="217.0359"
       id="line5345"
       style="stroke:#000000;stroke-width:1" />
    <line
       x1="208.45439"
       y1="218.8989"
       x2="217.7361"
       y2="202.53059"
       id="line5347"
       style="stroke:#000000;stroke-width:1" />
    <line
       x1="231.5799"
       y1="203.97778"
       x2="225.44189"
       y2="200.43451"
       id="line5349"
       style="stroke:#000000;stroke-width:1" />
    <line
       x1="210.4317"
       y1="141.9201"
       x2="217.4778"
       y2="141.9201"
       id="line5351"
       style="stroke:#000000;stroke-width:1" />
    <line
       x1="232.3989"
       y1="165.04561"
       x2="237.3813"
       y2="170.0289"
       id="line5353"
       style="stroke:#000000;stroke-width:1" />
    <line
       x1="217.4778"
       y1="141.9201"
       x2="213.93449"
       y2="148.05811"
       id="line5355"
       style="stroke:#000000;stroke-width:1" />
    <line
       x1="232.3989"
       y1="165.04561"
       x2="216.03059"
       y2="155.7639"
       id="line5357"
       style="stroke:#000000;stroke-width:1" />
    <line
       x1="237.3813"
       y1="170.0289"
       x2="230.5359"
       y2="171.8631"
       id="line5359"
       style="stroke:#000000;stroke-width:1" />
    <line
       x1="176.56831"
       y1="218.0799"
       x2="169.52222"
       y2="218.0799"
       id="line5361"
       style="stroke:#000000;stroke-width:1" />
    <line
       x1="154.6011"
       y1="194.95441"
       x2="149.6187"
       y2="189.9711"
       id="line5363"
       style="stroke:#000000;stroke-width:1" />
    <line
       x1="193.5"
       y1="79"
       x2="202.5"
       y2="115"
       id="line5365"
       style="stroke:#000000;stroke-width:1" />
    <line
       x1="202.5"
       y1="115"
       x2="184.50002"
       y2="115"
       id="line5367"
       style="stroke:#000000;stroke-width:1" />
    <line
       x1="184.50002"
       y1="115"
       x2="193.5"
       y2="79"
       id="line5369"
       style="stroke:#000000;stroke-width:1" />
    <line
       x1="157.49998"
       y1="81"
       x2="112.5"
       y2="81"
       id="line5371"
       style="stroke:#000000;stroke-width:1" />
    <line
       x1="112.5"
       y1="81"
       x2="112.5"
       y2="252"
       id="line5373"
       style="stroke:#000000;stroke-width:1" />
    <line
       x1="112.5"
       y1="252"
       x2="148.5"
       y2="252"
       id="line5375"
       style="stroke:#000000;stroke-width:1" />
    <line
       x1="148.5"
       y1="180"
       x2="148.5"
       y2="252"
       id="line5377"
       style="stroke:#000000;stroke-width:1" />
    <line
       x1="157.49998"
       y1="153"
       x2="157.49998"
       y2="81"
       id="line5379"
       style="stroke:#000000;stroke-width:1" />
    <line
       x1="193.5"
       y1="90"
       x2="193.5"
       y2="135"
       id="line5381"
       style="stroke:#000000;stroke-width:1" />
    <line
       x1="206.8461"
       y1="232.32509"
       x2="206.8461"
       y2="232.32509"
       id="line5383"
       style="stroke:#000000;stroke-width:1" />
    <line
       x1="170.8461"
       y1="245.8251"
       x2="206.8461"
       y2="236.8251"
       id="line5385"
       style="stroke:#000000;stroke-width:1" />
    <line
       x1="206.8461"
       y1="236.8251"
       x2="206.8461"
       y2="254.82509"
       id="line5387"
       style="stroke:#000000;stroke-width:1" />
    <line
       x1="206.8461"
       y1="254.82509"
       x2="170.8461"
       y2="245.8251"
       id="line5389"
       style="stroke:#000000;stroke-width:1" />
  </g>
  <g
     inkscape:label="Construction"
     inkscape:groupmode="layer"
     id="layer3" />
  <g
     inkscape:label="Dimension"
     inkscape:groupmode="layer"
     id="layer4" />
  <g
     inkscape:label="Constraints"
     inkscape:groupmode="layer"
     id="layer5">
    <path
       style="fill:#ff0000;fill-opacity:1;stroke-width:2;stroke-miterlimit:10.43299961;stroke-dasharray:none"
       d="M 206.18814,219.9739 C 207.86188,218.21559 209.59827,215.55007 213.05295,209.43591 C 215.59637,204.93453 218.112,200.9097 218.64321,200.49185 C 219.98385,199.4373 222.20688,198.83676 223.71947,199.12052 C 224.41928,199.25181 226.25735,200.10169 227.80406,201.00916 L 230.61632,202.65912 L 230.72561,199.69401 C 230.82461,197.00852 230.59889,195.88505 228.332,187.78043 C 226.95539,182.85877 225.83151,178.12777 225.83448,177.26708 C 225.8468,173.69904 227.86119,171.78948 232.96998,170.50294 C 234.47162,170.1248 235.70023,169.72052 235.70023,169.60457 C 235.70023,169.48863 234.72581,168.44668 233.53486,167.28914 C 231.92515,165.72461 229.26819,164.00275 223.1808,160.57919 C 218.66291,158.03831 214.57568,155.47891 214.06311,154.86975 C 211.981,152.39534 212.11763,149.77415 214.5454,145.61725 C 215.41023,144.13649 216.11779,142.82743 216.11779,142.70822 C 216.11779,142.58903 214.93023,142.49149 213.4788,142.49149 C 211.36619,142.49149 208.94701,143.01732 201.35102,145.12758 C 196.13223,146.57744 191.34617,147.75996 190.71539,147.75541 C 188.93433,147.74257 186.46837,146.44131 185.63823,145.07624 C 185.2285,144.40256 184.51905,142.43463 184.06165,140.70307 L 183.22996,137.55478 L 181.08591,139.67647 C 179.41222,141.33267 177.89522,143.64511 174.17143,150.21641 C 171.48329,154.96018 168.90752,159.04996 168.2703,159.58613 C 165.96361,161.52709 163.18697,161.37202 159.34154,159.08749 C 157.92268,158.24457 156.64455,157.5549 156.50126,157.5549 C 156.35797,157.5549 156.24074,158.90115 156.24074,160.54657 C 156.24074,163.07289 156.62151,164.91032 158.68854,172.35896 C 161.259,181.6216 161.52502,183.54781 160.52504,185.65514 C 159.67358,187.44951 158.42987,188.21873 154.57183,189.33721 C 152.73484,189.86977 151.17657,190.36084 151.1089,190.4285 C 151.04127,190.49614 151.81357,191.36672 152.82515,192.36309 C 154.0744,193.59357 157.54259,195.82102 163.63729,199.30721 C 173.80471,205.12298 174.31683,205.59124 174.31683,209.07161 C 174.31683,210.84179 174.06953,211.57306 172.6222,214.08228 C 171.69015,215.69817 170.92756,217.1129 170.92756,217.22611 C 170.92756,217.33931 172.13411,217.43195 173.60878,217.43195 C 175.76122,217.43195 178.18688,216.91209 185.9088,214.79585 C 191.19911,213.346 195.92925,212.15976 196.42016,212.15976 C 199.46324,212.15976 201.70576,214.54659 202.89607,219.0524 C 203.37193,220.85373 203.80323,222.32756 203.85448,222.32756 C 203.90574,222.32756 204.95588,221.26841 206.18814,219.9739 z M 188.43878,202.55762 C 180.35481,200.86779 173.22278,193.9738 171.11721,185.81416 C 170.37579,182.94079 170.28259,177.60312 170.92493,174.79864 C 172.40325,168.3445 177.09294,162.39714 183.00017,159.48509 C 190.07579,155.99706 196.94452,155.97304 203.87877,159.41204 C 207.67886,161.29668 210.30143,163.6013 212.66164,167.13009 C 215.21203,170.94324 216.14845,173.80828 216.39349,178.548 C 216.77527,185.93286 214.75169,191.36202 209.76774,196.32458 C 204.04104,202.02662 196.47548,204.23753 188.43878,202.5576 L 188.43878,202.55762 z"
       id="path5401" />
    <path
       style="fill:#000000;fill-opacity:1;stroke-width:2;stroke-miterlimit:10.43299961;stroke-dasharray:none"
       d="M 201.43097,114.01303 C 201.43097,113.32609 193.79973,82.954577 193.55763,82.677877 C 193.42755,82.529254 191.52399,89.604349 189.32744,98.400311 L 185.33376,114.39297 L 193.38236,114.39297 C 198.54441,114.39297 201.43097,114.25671 201.43097,114.01303 z"
       id="path5403" />
    <path
       style="fill:#000000;fill-opacity:1;stroke-width:2;stroke-miterlimit:10.43299961;stroke-dasharray:none"
       d="M 206.32658,245.87131 C 206.32658,241.41424 206.24041,237.76755 206.13508,237.76755 C 206.02975,237.76755 198.70046,239.57868 189.84777,241.79228 L 173.75195,245.81702 L 189.00366,249.63348 C 197.39209,251.73253 204.72138,253.56809 205.29097,253.71251 L 206.32658,253.97506 L 206.32658,245.87131 z"
       id="path5405" />
    <path
       style="fill:#cfdeed;fill-opacity:1;stroke-width:2;stroke-miterlimit:10.43299961;stroke-dasharray:none"
       d="M 147.95586,213.52713 C 147.95586,181.35743 148.04142,175.23168 148.53046,172.3852 C 149.57868,166.28413 151.93513,160.23996 155.26678,155.10709 L 156.97779,152.471 L 156.98585,116.97784 L 156.99391,81.484677 L 135.15197,81.484677 L 113.31002,81.484677 L 113.31002,166.40465 L 113.31002,251.32462 L 130.63294,251.32462 L 147.95586,251.32462 L 147.95586,213.52713 z"
       id="path5407" />
  </g>
</svg>
