<?xml version="1.0" encoding="UTF-8" standalone="no"?>
<!-- Created with Inkscape (http://www.inkscape.org/) -->
<svg
   xmlns:dc="http://purl.org/dc/elements/1.1/"
   xmlns:cc="http://creativecommons.org/ns#"
   xmlns:rdf="http://www.w3.org/1999/02/22-rdf-syntax-ns#"
   xmlns:svg="http://www.w3.org/2000/svg"
   xmlns="http://www.w3.org/2000/svg"
   xmlns:sodipodi="http://sodipodi.sourceforge.net/DTD/sodipodi-0.dtd"
   xmlns:inkscape="http://www.inkscape.org/namespaces/inkscape"
   width="744.09448819"
   height="1052.3622047"
   id="svg2"
   sodipodi:version="0.32"
   inkscape:version="0.46"
   sodipodi:docname="dlgprofile.svg"
   inkscape:output_extension="org.inkscape.output.svg.inkscape">
  <defs
     id="defs4">
    <inkscape:perspective
       sodipodi:type="inkscape:persp3d"
       inkscape:vp_x="0 : 526.18109 : 1"
       inkscape:vp_y="0 : 1000 : 0"
       inkscape:vp_z="744.09448 : 526.18109 : 1"
       inkscape:persp3d-origin="372.04724 : 350.78739 : 1"
       id="perspective10" />
  </defs>
  <sodipodi:namedview
     id="base"
     pagecolor="#ffffff"
     bordercolor="#666666"
     borderopacity="1.0"
     gridtolerance="10000"
     guidetolerance="10"
     objecttolerance="10"
     inkscape:pageopacity="0.0"
     inkscape:pageshadow="2"
     inkscape:zoom="1.4"
     inkscape:cx="342.51959"
     inkscape:cy="488.29426"
     inkscape:document-units="px"
     inkscape:current-layer="layer1"
     showgrid="true"
     inkscape:window-width="1674"
     inkscape:window-height="914"
     inkscape:window-x="84"
     inkscape:window-y="84">
    <inkscape:grid
       type="xygrid"
       id="grid2383" />
  </sodipodi:namedview>
  <metadata
     id="metadata7">
    <rdf:RDF>
      <cc:Work
         rdf:about="">
        <dc:format>image/svg+xml</dc:format>
        <dc:type
           rdf:resource="http://purl.org/dc/dcmitype/StillImage" />
      </cc:Work>
    </rdf:RDF>
  </metadata>
  <g
     inkscape:label="Layer 1"
     inkscape:groupmode="layer"
     id="layer1">
    <path
       style="fill:none;fill-rule:evenodd;stroke:#000000;stroke-width:2;stroke-linecap:butt;stroke-linejoin:miter;stroke-opacity:1;stroke-miterlimit:4;stroke-dasharray:none"
       d="M 290,652.36218 L 390,652.36218 L 390,562.36218 L 460,562.36218 L 460,492.36218 L 290,492.36218 L 290,652.36218 z"
       id="path2385" />
    <path
       style="fill:none;fill-rule:evenodd;stroke:#00ff00;stroke-width:2;stroke-linecap:butt;stroke-linejoin:miter;stroke-opacity:1;stroke-miterlimit:4;stroke-dasharray:none"
       d="M 280,672.36218 C 280,667.36218 285,662.36218 290,662.36218 C 307.83726,662.36218 371.62186,662.36218 390,662.36218 C 390,662.36218 380,662.36218 390,662.36218 C 400,662.36218 400,657.36218 400,652.36218 C 400,647.36218 400,572.36218 400,572.36218 C 400,572.36218 455,572.36218 460,572.36218 C 465,572.36218 470,567.36218 470,562.36218 C 470,557.36218 470,492.36218 470,492.36218 C 470,492.36218 470,497.36218 470,492.36218 C 470,487.36218 475,482.36218 480,482.36218 C 485,482.36218 480,482.36218 480,482.36218"
       id="path3157"
       sodipodi:nodetypes="cscsscsscssc" />
    <path
       style="fill:#000000;fill-rule:evenodd;stroke:#000000;stroke-width:1px;stroke-linecap:round;stroke-linejoin:round;stroke-opacity:1"
       d="M 320,622.36218 L 320,652.36218 L 315,647.36218 L 325,647.36218 L 320,652.36218 L 320,652.36218"
       id="path3159" />
    <path
       style="fill:none;fill-rule:evenodd;stroke:#000000;stroke-width:1px;stroke-linecap:butt;stroke-linejoin:miter;stroke-opacity:1"
       d="M 320,662.36218 L 320,662.36218 z"
       id="path3161" />
    <path
       style="fill:#000000;fill-rule:evenodd;stroke:#000000;stroke-width:1px;stroke-linecap:round;stroke-linejoin:round;stroke-opacity:1"
       d="M 320,692.36218 L 320,662.36218 L 315,667.36218 L 325,667.36218 L 320,662.36218"
       id="path3163" />
    <text
       xml:space="preserve"
       style="font-size:12.61849117px;font-style:normal;font-weight:normal;fill:#000000;fill-opacity:1;stroke:none;stroke-width:1px;stroke-linecap:butt;stroke-linejoin:miter;stroke-opacity:1;font-family:Bitstream Vera Sans"
       x="275.52536"
       y="662.78534"
       id="text3165"
       transform="scale(0.9436518,1.0597129)"><tspan
         sodipodi:role="line"
         id="tspan3167"
         x="275.52536"
         y="662.78534">tool radius + offset extra</tspan></text>
  </g>
</svg>
